<?xml version="1.0" encoding="UTF-8"?>
<svg id="Capa_2" xmlns="http://www.w3.org/2000/svg" viewBox="0 0 69.59 46.1">
  <defs>
    <style>
      .cls-1 {
        fill: #1f150b;
      }
    </style>
  </defs>
  <g id="portada">
    <g>
      <path class="cls-1" d="M67.22,14.36c-.03-2.22-1.12-4.3-2.95-5.58l-5.77-4.04c-1.16-.82-2.55-1.25-3.97-1.25h-3.73c-.28-1.95-1.94-3.46-3.97-3.46h-3.52c-2.03,0-3.69,1.51-3.97,3.46h-14.5c-.27-1.97-1.93-3.49-3.97-3.49h-3.52c-2.04,0-3.71,1.52-3.97,3.49h-2.99c-3.82,0-6.92,3.1-6.92,6.93v3.63c-1.95.28-3.46,1.94-3.46,3.97v3.52c0,2.03,1.51,3.69,3.46,3.97v9.63c0,2.26,1.1,4.38,2.95,5.67l5.77,4.04c1.16.82,2.55,1.25,3.97,1.25h40.17c6.02,0,10.9-4.88,10.9-10.9v-10c1.39-.63,2.36-2.03,2.36-3.66v-3.52c0-1.63-.97-3.03-2.37-3.66ZM54.66,32.62c0,2.01-1.63,3.64-3.64,3.64H12.26c-2.01,0-3.64-1.63-3.64-3.64V11.49c0-2.01,1.63-3.64,3.64-3.64h38.76c2.01,0,3.64,1.63,3.64,3.64v21.12Z"/>
      <g>
        <circle class="cls-1" cx="23.03" cy="22.05" r="5.79"/>
        <circle class="cls-1" cx="40.24" cy="22.05" r="5.79"/>
      </g>
    </g>
  </g>
</svg>